<svg version="1.1" id="Layer_1" xmlns="http://www.w3.org/2000/svg" xmlns:xlink="http://www.w3.org/1999/xlink" x="0px" y="0px"
	 width="100%" viewBox="0 0 512 512" enable-background="new 0 0 512 512" xml:space="preserve">
<path fill="#000000" opacity="1.000000" stroke="none" 
	d="
M293.000000,513.000000 
	C195.357040,513.000000 98.214073,513.000000 1.035558,513.000000 
	C1.035558,342.398682 1.035558,171.797348 1.035558,1.098012 
	C171.559647,1.098012 342.119354,1.098012 512.839539,1.098012 
	C512.839539,171.666550 512.839539,342.333252 512.839539,513.000000 
	C439.797333,513.000000 366.648651,513.000000 293.000000,513.000000 
M124.125252,49.103901 
	C102.860374,48.444859 88.754730,62.302288 89.078026,83.534401 
	C89.208221,92.085197 83.782471,95.441925 75.917397,91.676414 
	C63.915672,85.930458 50.623341,89.670570 44.142555,100.617027 
	C37.626579,111.622932 40.611408,125.351051 51.556576,132.756531 
	C55.653473,135.528488 57.249256,138.828033 57.053871,143.600830 
	C56.818577,149.348480 56.998192,155.113113 56.998192,160.656479 
	C156.073868,160.656479 254.463593,160.656479 353.001801,160.656479 
	C353.001801,156.655258 352.537720,152.920151 353.138641,149.365051 
	C353.686005,146.127258 354.776611,142.624298 356.710266,140.051941 
	C360.774963,134.644547 362.346069,129.072189 359.671143,122.814377 
	C357.010406,116.589676 352.010590,113.422440 345.231995,113.003212 
	C337.960693,112.553513 335.154541,108.931992 336.448273,101.807396 
	C338.759094,89.081894 331.592010,77.310081 319.485474,73.946304 
	C307.248322,70.546234 295.059235,76.705254 290.460266,88.850845 
	C289.082062,92.490501 287.545441,95.581596 283.240540,96.142334 
	C278.708801,96.732605 276.380463,93.949318 274.057709,90.618629 
	C264.983765,77.607277 252.330856,71.948067 236.615280,73.217430 
	C228.026398,73.911148 225.429276,71.850891 224.954865,63.302513 
	C224.015976,46.384155 210.036224,33.079762 193.123886,33.009254 
	C178.104340,32.946640 165.864288,42.742977 161.868515,58.134979 
	C160.927612,61.759365 159.297440,64.701607 155.423828,65.637947 
	C151.500168,66.586395 148.718506,64.679337 146.446121,61.672783 
	C141.045288,54.527023 133.745392,50.613945 124.125252,49.103901 
M161.054123,376.161194 
	C161.035965,407.825989 161.002502,439.490814 161.011673,471.155609 
	C161.013672,478.051178 163.860825,480.980530 170.630371,480.985291 
	C212.628387,481.014832 254.626556,480.961365 296.624237,481.085236 
	C299.523041,481.093781 300.715912,479.927734 301.825653,477.624329 
	C305.503784,469.989929 309.357300,462.440247 313.098633,454.835999 
	C314.750641,451.478271 317.032013,449.008057 321.063049,449.039886 
	C325.088623,449.071686 327.309753,451.578278 328.954773,454.942261 
	C332.679138,462.558563 336.576233,470.091370 340.229004,477.741211 
	C341.370239,480.131226 342.699860,481.084717 345.505402,481.077301 
	C387.503143,480.966034 429.501282,481.016174 471.499329,480.983093 
	C478.018250,480.977966 480.974213,478.025665 480.982452,471.514191 
	C481.021576,440.515686 481.020477,409.517090 480.983398,378.518585 
	C480.975586,371.981964 478.038971,369.021637 471.544312,369.016602 
	C429.546265,368.984039 387.548126,369.032288 345.550354,368.925720 
	C342.776642,368.918701 341.402008,369.799377 340.247803,372.218079 
	C336.668488,379.718811 332.778137,387.070770 329.177948,394.561951 
	C327.478455,398.098297 325.325897,400.892700 321.094452,400.940735 
	C316.864563,400.988800 314.624695,398.298920 312.907867,394.737457 
	C309.227936,387.103790 305.489197,379.489532 301.430725,372.055023 
	C300.636932,370.600952 298.290771,369.132080 296.655060,369.125885 
	C254.657623,368.966034 212.659439,369.025055 170.661469,368.964661 
	C165.919891,368.957825 162.615479,370.630249 161.054123,376.161194 
M113.000404,325.500000 
	C113.000404,355.895111 113.000404,386.290253 113.000404,416.735474 
	C123.981087,416.735474 134.232819,416.735474 144.999573,416.735474 
	C144.999573,414.859985 144.999329,413.241730 144.999603,411.623505 
	C145.001495,400.134369 144.917908,388.644409 145.032806,377.156403 
	C145.123047,368.134094 149.046143,360.938141 156.877197,356.551575 
	C160.416122,354.569275 161.070953,352.310028 161.063126,348.711426 
	C160.965958,304.087189 160.999588,259.462677 160.999573,214.838242 
	C160.999573,213.056671 160.999603,211.275101 160.999603,209.345001 
	C144.753464,209.345001 129.054520,209.345001 113.000404,209.345001 
	C113.000404,247.959000 113.000404,286.229492 113.000404,325.500000 
M51.107357,231.344360 
	C55.554646,293.055450 60.001934,354.766510 64.467094,416.725586 
	C75.375832,416.725586 85.934082,416.725586 96.721085,416.725586 
	C96.721085,347.478180 96.721085,278.469757 96.721085,209.291931 
	C81.047760,209.291931 65.655640,209.291931 49.728420,209.291931 
	C50.187473,216.543518 50.626213,223.474289 51.107357,231.344360 
M224.999557,265.500000 
	C224.999557,246.762650 224.999557,228.025314 224.999557,209.248474 
	C208.690155,209.248474 193.107101,209.248474 177.274506,209.248474 
	C177.274506,257.173126 177.274506,304.849640 177.274506,352.663483 
	C193.251175,352.663483 208.951813,352.663483 224.999557,352.663483 
	C224.999557,323.719177 224.999557,295.109589 224.999557,265.500000 
M241.000351,260.500000 
	C241.000351,291.220398 241.000351,321.940826 241.000351,352.582031 
	C257.403351,352.582031 273.099518,352.582031 288.736603,352.582031 
	C288.736603,304.615875 288.736603,257.067932 288.736603,209.329514 
	C272.777130,209.329514 257.082336,209.329514 241.000351,209.329514 
	C241.000351,226.270706 241.000351,242.885361 241.000351,260.500000 
M304.999054,252.500000 
	C304.999054,285.787842 304.999054,319.075684 304.999054,352.330109 
	C315.503204,355.806580 314.815216,367.459595 321.400482,374.202332 
	C323.111938,370.797913 324.750702,367.740326 326.207397,364.598358 
	C329.266815,357.999176 331.972198,351.036774 341.624207,353.014557 
	C344.738617,304.758575 347.809418,257.177490 350.898163,209.319275 
	C335.441376,209.319275 320.410675,209.319275 304.999054,209.319275 
	C304.999054,223.590851 304.999054,237.545425 304.999054,252.500000 
M58.500004,192.999908 
	C161.909210,192.999908 265.318420,192.999908 368.655304,192.999908 
	C369.854614,179.165985 367.933044,177.000153 355.245880,177.000137 
	C251.920547,177.000046 148.595200,176.999863 45.269863,177.002182 
	C43.603680,177.002228 41.914940,176.864380 40.275734,177.083145 
	C36.139542,177.635162 33.579712,180.071259 33.112659,184.210144 
	C32.803047,186.953842 33.053982,189.760803 33.053982,192.999908 
	C41.577400,192.999908 49.538704,192.999908 58.500004,192.999908 
z"/>
<path fill="#FCE475" opacity="1.000000" stroke="none" 
	d="
M124.564949,49.147087 
	C133.745392,50.613945 141.045288,54.527023 146.446121,61.672783 
	C148.718506,64.679337 151.500168,66.586395 155.423828,65.637947 
	C159.297440,64.701607 160.927612,61.759365 161.868515,58.134979 
	C165.864288,42.742977 178.104340,32.946640 193.123886,33.009254 
	C210.036224,33.079762 224.015976,46.384155 224.954865,63.302513 
	C225.429276,71.850891 228.026398,73.911148 236.615280,73.217430 
	C252.330856,71.948067 264.983765,77.607277 274.057709,90.618629 
	C276.380463,93.949318 278.708801,96.732605 283.240540,96.142334 
	C287.545441,95.581596 289.082062,92.490501 290.460266,88.850845 
	C295.059235,76.705254 307.248322,70.546234 319.485474,73.946304 
	C331.592010,77.310081 338.759094,89.081894 336.448273,101.807396 
	C335.154541,108.931992 337.960693,112.553513 345.231995,113.003212 
	C352.010590,113.422440 357.010406,116.589676 359.671143,122.814377 
	C362.346069,129.072189 360.774963,134.644547 356.710266,140.051941 
	C354.776611,142.624298 353.686005,146.127258 353.138641,149.365051 
	C352.537720,152.920151 353.001801,156.655258 353.001801,160.656479 
	C254.463593,160.656479 156.073868,160.656479 56.998192,160.656479 
	C56.998192,155.113113 56.818577,149.348480 57.053871,143.600830 
	C57.249256,138.828033 55.653473,135.528488 51.556576,132.756531 
	C40.611408,125.351051 37.626579,111.622932 44.142555,100.617027 
	C50.623341,89.670570 63.915672,85.930458 75.917397,91.676414 
	C83.782471,95.441925 89.208221,92.085197 89.078026,83.534401 
	C88.754730,62.302288 102.860374,48.444859 124.564949,49.147087 
M159.141830,123.497520 
	C159.651184,121.573318 160.306412,119.674568 160.647186,117.720963 
	C163.863602,99.281837 148.106415,80.648003 129.645081,81.005493 
	C124.631058,81.102592 121.145943,84.252655 121.026970,88.795074 
	C120.913170,93.139999 123.973839,96.393723 128.747238,96.978333 
	C129.406082,97.059021 130.081787,97.004250 130.739868,97.088715 
	C138.723663,98.113464 144.793808,104.733498 144.978790,112.599709 
	C145.169006,120.689087 139.177917,127.703011 131.037506,128.878464 
	C129.888626,129.044357 128.671890,128.875061 127.563034,129.159302 
	C123.345062,130.240479 120.852844,132.973724 121.090462,137.390213 
	C121.326515,141.777603 124.005981,144.371979 128.353561,144.903366 
	C130.137909,145.121445 132.029419,144.947174 133.811554,144.620605 
	C145.872147,142.410706 154.280487,135.630951 159.141830,123.497520 
M256.818481,103.227684 
	C255.352341,98.898849 252.381836,96.415237 247.786255,97.169380 
	C242.966187,97.960373 241.254745,101.422089 240.880157,106.158981 
	C240.199677,114.764198 233.281662,120.988785 224.985001,120.982910 
	C216.708832,120.977051 209.965729,114.702255 209.042633,106.134995 
	C208.953674,105.309433 209.061707,104.443962 208.860687,103.652267 
	C207.790436,99.436882 205.112686,96.902809 200.694946,97.086655 
	C196.307480,97.269241 193.647568,99.903702 193.109268,104.254143 
	C192.869141,106.194954 193.096664,108.256302 193.457092,110.198921 
	C196.573975,126.998672 211.264450,138.374268 227.838104,136.905228 
	C244.627197,135.417084 256.916656,121.541222 256.818481,103.227684 
z"/>
<path fill="#FAE8D8" opacity="1.000000" stroke="none" 
	d="
M161.106186,375.735443 
	C162.615479,370.630249 165.919891,368.957825 170.661469,368.964661 
	C212.659439,369.025055 254.657623,368.966034 296.655060,369.125885 
	C298.290771,369.132080 300.636932,370.600952 301.430725,372.055023 
	C305.489197,379.489532 309.227936,387.103790 312.907867,394.737457 
	C314.624695,398.298920 316.864563,400.988800 321.094452,400.940735 
	C325.325897,400.892700 327.478455,398.098297 329.177948,394.561951 
	C332.778137,387.070770 336.668488,379.718811 340.247803,372.218079 
	C341.402008,369.799377 342.776642,368.918701 345.550354,368.925720 
	C387.548126,369.032288 429.546265,368.984039 471.544312,369.016602 
	C478.038971,369.021637 480.975586,371.981964 480.983398,378.518585 
	C481.020477,409.517090 481.021576,440.515686 480.982452,471.514191 
	C480.974213,478.025665 478.018250,480.977966 471.499329,480.983093 
	C429.501282,481.016174 387.503143,480.966034 345.505402,481.077301 
	C342.699860,481.084717 341.370239,480.131226 340.229004,477.741211 
	C336.576233,470.091370 332.679138,462.558563 328.954773,454.942261 
	C327.309753,451.578278 325.088623,449.071686 321.063049,449.039886 
	C317.032013,449.008057 314.750641,451.478271 313.098633,454.835999 
	C309.357300,462.440247 305.503784,469.989929 301.825653,477.624329 
	C300.715912,479.927734 299.523041,481.093781 296.624237,481.085236 
	C254.626556,480.961365 212.628387,481.014832 170.630371,480.985291 
	C163.860825,480.980530 161.013672,478.051178 161.011673,471.155609 
	C161.002502,439.490814 161.035965,407.825989 161.106186,375.735443 
M176.999832,430.500000 
	C177.000153,438.990845 176.933731,447.482361 177.023712,455.972260 
	C177.086273,461.876160 180.072784,464.960846 185.931900,464.971741 
	C217.231339,465.029907 248.530975,465.025665 279.830444,464.976776 
	C285.976898,464.967163 288.962494,461.918213 288.979004,455.700592 
	C289.033325,435.222839 289.033997,414.744781 288.978607,394.267029 
	C288.961792,388.049072 285.980438,385.031128 279.808533,385.021881 
	C248.675537,384.975281 217.542419,384.978882 186.409409,385.017883 
	C179.930542,385.026001 177.045227,387.984711 177.015182,394.537811 
	C176.961761,406.191650 176.999954,417.845917 176.999832,430.500000 
M438.499817,384.999847 
	C413.193787,384.999939 387.887695,384.978424 362.581726,385.014832 
	C356.001160,385.024292 353.035004,387.907684 353.019073,394.365479 
	C352.968567,414.843231 352.964691,435.321320 353.022339,455.799072 
	C353.039734,461.977570 356.046783,464.969971 362.257965,464.978943 
	C393.390961,465.023895 424.524109,465.022125 455.657104,464.980591 
	C461.898254,464.972260 464.955963,462.003265 464.974915,455.873932 
	C465.038757,435.229736 465.042816,414.585052 464.971313,393.940918 
	C464.951019,388.076874 461.877838,385.116333 455.981567,385.019836 
	C450.488953,384.929932 444.993744,385.000122 438.499817,384.999847 
z"/>
<path fill="#2B70A8" opacity="1.000000" stroke="none" 
	d="
M113.000404,325.000000 
	C113.000404,286.229492 113.000404,247.959000 113.000404,209.345001 
	C129.054520,209.345001 144.753464,209.345001 160.999603,209.345001 
	C160.999603,211.275101 160.999573,213.056671 160.999573,214.838242 
	C160.999588,259.462677 160.965958,304.087189 161.063126,348.711426 
	C161.070953,352.310028 160.416122,354.569275 156.877197,356.551575 
	C149.046143,360.938141 145.123047,368.134094 145.032806,377.156403 
	C144.917908,388.644409 145.001495,400.134369 144.999603,411.623505 
	C144.999329,413.241730 144.999573,414.859985 144.999573,416.735474 
	C134.232819,416.735474 123.981087,416.735474 113.000404,416.735474 
	C113.000404,386.290253 113.000404,355.895111 113.000404,325.000000 
z"/>
<path fill="#CD3536" opacity="1.000000" stroke="none" 
	d="
M51.086159,230.874725 
	C50.626213,223.474289 50.187473,216.543518 49.728420,209.291931 
	C65.655640,209.291931 81.047760,209.291931 96.721085,209.291931 
	C96.721085,278.469757 96.721085,347.478180 96.721085,416.725586 
	C85.934082,416.725586 75.375832,416.725586 64.467094,416.725586 
	C60.001934,354.766510 55.554646,293.055450 51.086159,230.874725 
z"/>
<path fill="#CE3536" opacity="1.000000" stroke="none" 
	d="
M224.999557,266.000000 
	C224.999557,295.109589 224.999557,323.719177 224.999557,352.663483 
	C208.951813,352.663483 193.251175,352.663483 177.274506,352.663483 
	C177.274506,304.849640 177.274506,257.173126 177.274506,209.248474 
	C193.107101,209.248474 208.690155,209.248474 224.999557,209.248474 
	C224.999557,228.025314 224.999557,246.762650 224.999557,266.000000 
z"/>
<path fill="#2B70A8" opacity="1.000000" stroke="none" 
	d="
M241.000351,260.000000 
	C241.000351,242.885361 241.000351,226.270706 241.000351,209.329514 
	C257.082336,209.329514 272.777130,209.329514 288.736603,209.329514 
	C288.736603,257.067932 288.736603,304.615875 288.736603,352.582031 
	C273.099518,352.582031 257.403351,352.582031 241.000351,352.582031 
	C241.000351,321.940826 241.000351,291.220398 241.000351,260.000000 
z"/>
<path fill="#CD3536" opacity="1.000000" stroke="none" 
	d="
M304.999054,252.000000 
	C304.999054,237.545425 304.999054,223.590851 304.999054,209.319275 
	C320.410675,209.319275 335.441376,209.319275 350.898163,209.319275 
	C347.809418,257.177490 344.738617,304.758575 341.624207,353.014557 
	C331.972198,351.036774 329.266815,357.999176 326.207397,364.598358 
	C324.750702,367.740326 323.111938,370.797913 321.400482,374.202332 
	C314.815216,367.459595 315.503204,355.806580 304.999054,352.330109 
	C304.999054,319.075684 304.999054,285.787842 304.999054,252.000000 
z"/>
<path fill="#A52B2B" opacity="1.000000" stroke="none" 
	d="
M58.000008,192.999908 
	C49.538704,192.999908 41.577400,192.999908 33.053982,192.999908 
	C33.053982,189.760803 32.803047,186.953842 33.112659,184.210144 
	C33.579712,180.071259 36.139542,177.635162 40.275734,177.083145 
	C41.914940,176.864380 43.603680,177.002228 45.269863,177.002182 
	C148.595200,176.999863 251.920547,177.000046 355.245880,177.000137 
	C367.933044,177.000153 369.854614,179.165985 368.655304,192.999908 
	C265.318420,192.999908 161.909210,192.999908 58.000008,192.999908 
z"/>
<path fill="#040402" opacity="1.000000" stroke="none" 
	d="
M159.044510,123.879730 
	C154.280487,135.630951 145.872147,142.410706 133.811554,144.620605 
	C132.029419,144.947174 130.137909,145.121445 128.353561,144.903366 
	C124.005981,144.371979 121.326515,141.777603 121.090462,137.390213 
	C120.852844,132.973724 123.345062,130.240479 127.563034,129.159302 
	C128.671890,128.875061 129.888626,129.044357 131.037506,128.878464 
	C139.177917,127.703011 145.169006,120.689087 144.978790,112.599709 
	C144.793808,104.733498 138.723663,98.113464 130.739868,97.088715 
	C130.081787,97.004250 129.406082,97.059021 128.747238,96.978333 
	C123.973839,96.393723 120.913170,93.139999 121.026970,88.795074 
	C121.145943,84.252655 124.631058,81.102592 129.645081,81.005493 
	C148.106415,80.648003 163.863602,99.281837 160.647186,117.720963 
	C160.306412,119.674568 159.651184,121.573318 159.044510,123.879730 
z"/>
<path fill="#040402" opacity="1.000000" stroke="none" 
	d="
M256.878571,103.637947 
	C256.916656,121.541222 244.627197,135.417084 227.838104,136.905228 
	C211.264450,138.374268 196.573975,126.998672 193.457092,110.198921 
	C193.096664,108.256302 192.869141,106.194954 193.109268,104.254143 
	C193.647568,99.903702 196.307480,97.269241 200.694946,97.086655 
	C205.112686,96.902809 207.790436,99.436882 208.860687,103.652267 
	C209.061707,104.443962 208.953674,105.309433 209.042633,106.134995 
	C209.965729,114.702255 216.708832,120.977051 224.985001,120.982910 
	C233.281662,120.988785 240.199677,114.764198 240.880157,106.158981 
	C241.254745,101.422089 242.966187,97.960373 247.786255,97.169380 
	C252.381836,96.415237 255.352341,98.898849 256.878571,103.637947 
z"/>
<path fill="#000000" opacity="1.000000" stroke="none" 
	d="
M176.999832,430.000000 
	C176.999954,417.845917 176.961761,406.191650 177.015182,394.537811 
	C177.045227,387.984711 179.930542,385.026001 186.409409,385.017883 
	C217.542419,384.978882 248.675537,384.975281 279.808533,385.021881 
	C285.980438,385.031128 288.961792,388.049072 288.978607,394.267029 
	C289.033997,414.744781 289.033325,435.222839 288.979004,455.700592 
	C288.962494,461.918213 285.976898,464.967163 279.830444,464.976776 
	C248.530975,465.025665 217.231339,465.029907 185.931900,464.971741 
	C180.072784,464.960846 177.086273,461.876160 177.023712,455.972260 
	C176.933731,447.482361 177.000153,438.990845 176.999832,430.000000 
M241.500000,448.998566 
	C251.919983,448.998566 262.339966,448.998566 272.692505,448.998566 
	C272.692505,432.616119 272.692505,417.024445 272.692505,401.395813 
	C246.008438,401.395813 219.632401,401.395813 193.307556,401.395813 
	C193.307556,417.383911 193.307556,432.975677 193.307556,448.998566 
	C209.239944,448.998566 224.869980,448.998566 241.500000,448.998566 
z"/>
<path fill="#000000" opacity="1.000000" stroke="none" 
	d="
M438.999756,384.999847 
	C444.993744,385.000122 450.488953,384.929932 455.981567,385.019836 
	C461.877838,385.116333 464.951019,388.076874 464.971313,393.940918 
	C465.042816,414.585052 465.038757,435.229736 464.974915,455.873932 
	C464.955963,462.003265 461.898254,464.972260 455.657104,464.980591 
	C424.524109,465.022125 393.390961,465.023895 362.257965,464.978943 
	C356.046783,464.969971 353.039734,461.977570 353.022339,455.799072 
	C352.964691,435.321320 352.968567,414.843231 353.019073,394.365479 
	C353.035004,387.907684 356.001160,385.024292 362.581726,385.014832 
	C387.887695,384.978424 413.193787,384.999939 438.999756,384.999847 
M418.500000,401.001312 
	C402.100739,401.001312 385.701477,401.001312 369.410095,401.001312 
	C369.410095,417.411591 369.410095,433.107361 369.410095,448.731628 
	C396.050903,448.731628 422.282074,448.731628 448.678406,448.731628 
	C448.678406,432.768921 448.678406,417.074860 448.678406,401.001312 
	C438.741577,401.001312 429.120789,401.001312 418.500000,401.001312 
z"/>
<path fill="#2B70A8" opacity="1.000000" stroke="none" 
	d="
M241.000000,448.998566 
	C224.869980,448.998566 209.239944,448.998566 193.307556,448.998566 
	C193.307556,432.975677 193.307556,417.383911 193.307556,401.395813 
	C219.632401,401.395813 246.008438,401.395813 272.692505,401.395813 
	C272.692505,417.024445 272.692505,432.616119 272.692505,448.998566 
	C262.339966,448.998566 251.919983,448.998566 241.000000,448.998566 
z"/>
<path fill="#CE3536" opacity="1.000000" stroke="none" 
	d="
M419.000000,401.001312 
	C429.120789,401.001312 438.741577,401.001312 448.678406,401.001312 
	C448.678406,417.074860 448.678406,432.768921 448.678406,448.731628 
	C422.282074,448.731628 396.050903,448.731628 369.410095,448.731628 
	C369.410095,433.107361 369.410095,417.411591 369.410095,401.001312 
	C385.701477,401.001312 402.100739,401.001312 419.000000,401.001312 
z"/>
</svg>